<?xml version="1.0" encoding="UTF-8"?>
<svg width="73px" height="73px" viewBox="0 0 73 73" version="1.1" xmlns="http://www.w3.org/2000/svg" xmlns:xlink="http://www.w3.org/1999/xlink">
    <!-- Generator: Sketch 59.1 (86144) - https://sketch.com -->
    <title>Artboard</title>
    <desc>Created with Sketch.</desc>
    <defs>
        <linearGradient x1="50%" y1="0%" x2="50%" y2="100%" id="linearGradient-1">
            <stop stop-color="#E7E7E7" offset="0%"></stop>
            <stop stop-color="#FFFFFF" offset="100%"></stop>
        </linearGradient>
        <path d="M52.0153159,18.3465347 L52.0153159,18.3465347 C49.3055122,15.5618812 45.6924405,13.9375 41.8535518,13.9375 L41.8535518,13.9375 C38.0146631,13.9375 34.1757745,15.5618812 31.4659707,18.3465347 C31.4659707,18.3465347 31.4659707,18.3465347 31.4659707,18.3465347 L30.5627028,19.2747525 L29.6594348,18.3465347 C24.0140103,12.5451733 14.7555141,12.5451733 9.11008961,18.3465347 C6.17446886,21.1311881 4.59375,25.0761139 4.59375,29.0210396 C4.59375,32.9659653 6.17446886,36.9108911 8.88427263,39.6955446 L28.7561669,60.1163366 C29.2078009,60.5804455 29.6594348,60.8125 30.3368858,60.8125 C31.0143367,60.8125 31.4659707,60.5804455 31.9176047,60.1163366 L51.7894989,39.6955446 C54.4993027,36.9108911 56.0800216,32.9659653 56.0800216,29.0210396 C56.5316555,25.0761139 54.9509367,21.1311881 52.0153159,18.3465347 Z M48.8538782,36.4467822 L30.5627028,55.2431931 L12.2715273,36.4467822 C10.2391745,34.3582921 9.33590659,31.8056931 9.33590659,29.0210396 C9.33590659,26.2363861 10.4649915,23.6837871 12.2715273,21.595297 C14.0780632,19.5068069 16.787867,18.5785891 19.2718537,18.5785891 C21.9816575,18.5785891 24.4656443,19.5068069 26.4979971,21.595297 L28.9819839,24.147896 C29.8852518,25.0761139 31.2401537,25.0761139 32.1434216,24.147896 L34.4015914,21.595297 C34.4015914,21.595297 34.4015914,21.595297 34.4015914,21.595297 C36.4339443,19.7388614 38.917931,18.5785891 41.8535518,18.5785891 C41.8535518,18.5785891 41.8535518,18.5785891 41.8535518,18.5785891 C44.5633556,18.5785891 47.0473423,19.7388614 49.0796952,21.595297 L49.0796952,21.595297 C50.886231,23.6837871 52.0153159,26.2363861 52.0153159,29.0210396 C52.0153159,31.8056931 50.886231,34.3582921 48.8538782,36.4467822 Z" id="path-2"></path>
    </defs>
    <g id="Artboard" stroke="none" stroke-width="1" fill="none" fill-rule="evenodd">
        <g id="icon-/-heart" transform="translate(36.500000, 35.000000) rotate(-3.000000) translate(-36.500000, -35.000000) translate(5.000000, 4.000000)">
            <path d="M30.6541612,51.7973608 C39.5642857,51.7973608 48.9331499,49.1396718 51.9288034,45.4226714 C52.3463273,44.9046085 52.2688342,44.2574339 51.6094721,42.4177094 C51.5878295,42.3573201 51.5878295,42.3573201 51.5660662,42.2965051 C51.090761,40.9674262 50.9041612,40.2638517 50.9041612,39.4223608 C50.9041612,36.3912293 49.911639,29.5296611 48.4936052,23.9633033 C46.6563128,16.7511858 44.260342,11.9611255 41.8174578,11.1109502 C40.3505092,10.600421 37.4968968,10.0531828 35.0684901,9.99994413 C31.7259141,9.92666393 29.3989017,10.7127249 28.4849918,12.4198069 C28.2462825,12.8656893 27.8805629,13.2710359 27.2534003,13.8556356 C27.258953,13.8504597 26.0587533,14.9400121 25.704001,15.2846984 C24.2559356,16.691675 23.4878397,17.8948429 23.3664511,19.2138015 C23.3132477,19.7918869 23.4046288,20.4977956 23.6316187,21.3126246 C23.841179,22.0648864 24.153745,22.8737952 24.5727971,23.7927363 C24.8169798,24.3282057 25.558347,25.8393959 25.6138004,25.9583893 C25.7805469,26.3161981 25.8825337,26.5673955 25.940933,26.7945508 C26.0024727,27.0339212 26.0231968,27.2512104 25.9613078,27.5093838 C25.8305221,28.0549632 25.3529613,28.4319401 24.7904297,28.4319401 C14.3911457,28.4319401 10.4041612,31.9121965 10.4041612,39.4223608 C10.4041612,46.1205308 19.3924753,51.7973608 30.6541612,51.7973608 Z M23.7588913,27.343074 C23.7598322,27.3470152 23.7608017,27.3509169 23.761796,27.3547847 C23.7589714,27.3437978 23.7540242,27.3284171 23.746973,27.3088271 Z" id="Oval" stroke="#FFFFFF" stroke-width="2.25" fill="url(#linearGradient-1)" transform="translate(31.293508, 30.896364) rotate(54.000000) translate(-31.293508, -30.896364) "></path>
            <mask id="mask-3" fill="white">
                <use xlink:href="#path-2"></use>
            </mask>
            <use id="Mask" fill="#FFFFFF" fill-rule="nonzero" xlink:href="#path-2"></use>
        </g>
    </g>
</svg>