<?xml version="1.0" encoding="UTF-8"?>
<svg width="300px" height="300px" viewBox="0 0 300 300" version="1.1" xmlns="http://www.w3.org/2000/svg" xmlns:xlink="http://www.w3.org/1999/xlink">
    <!-- Generator: Sketch 59.1 (86144) - https://sketch.com -->
    <title>Logo V3 Portrait Gray Copy 2</title>
    <desc>Created with Sketch.</desc>
    <defs>
        <linearGradient x1="59.2951899%" y1="11.4123368%" x2="41.1804485%" y2="98.1399656%" id="linearGradient-1">
            <stop stop-color="#3B3B3B" offset="0%"></stop>
            <stop stop-color="#121212" offset="100%"></stop>
        </linearGradient>
        <path d="M204.011245,163.814033 C196.70625,175.349801 167.515581,172.465859 131.31088,156.676899 C128.691498,155.540747 125.781153,154.200657 122.172354,152.482027 C119.262009,151.083795 116.2934,149.598085 113.092091,147.879277 C105.408738,143.888342 97.6672976,139.40223 90.0422076,134.566382 C82.3297219,129.672393 74.9664635,124.574466 68.1272234,119.41822 C65.36236,117.350032 62.6848923,115.223525 60.0946423,113.155158 C57.3589109,110.912014 54.8560566,108.814666 52.4404203,106.687981 C22.6385146,80.7323264 7.53381608,55.5339287 14.8388109,43.9690018 C21.7071829,33.0740313 42.2378219,31.2139246 75.5321776,44.7307576 C72.6509642,46.2164676 69.2685499,48.7080948 66.6493458,50.6306636 C52.5049333,48.9701743 48.5987435,55.0095918 43.9422623,62.408983 C39.1401218,69.9829754 40.9445215,81.0818842 49.0353663,93.5790252 C52.0911932,98.3273946 56.0202656,103.250543 60.7930966,108.23201 C63.0049874,110.562456 65.333228,112.83476 67.748864,114.990427 C74.7337636,121.370126 82.6206852,127.341948 91.1771071,132.760273 C99.7335291,138.178599 108.522828,142.75219 117.253864,146.364407 C120.105945,147.529718 123.074554,148.665871 126.334126,149.743704 C132.795185,151.89937 138.93597,153.355921 144.582047,154.084196 C147.492392,154.462914 150.228124,154.666852 152.789241,154.666852 C163.353809,154.666852 171.066117,151.462334 174.907794,145.374052 C179.593407,138.03298 183.649558,131.93949 176.111863,119.821066 C176.693968,116.616548 177.47497,114.380021 177.562188,111.146522 C204.046435,135.500006 210.908749,152.918885 204.011245,163.814033 Z" id="path-2"></path>
        <filter x="-1.0%" y="-0.7%" width="102.1%" height="102.9%" filterUnits="objectBoundingBox" id="filter-3">
            <feOffset dx="0" dy="1" in="SourceAlpha" result="shadowOffsetOuter1"></feOffset>
            <feGaussianBlur stdDeviation="0.5" in="shadowOffsetOuter1" result="shadowBlurOuter1"></feGaussianBlur>
            <feColorMatrix values="0 0 0 0 0   0 0 0 0 0   0 0 0 0 0  0 0 0 0.19 0" type="matrix" in="shadowBlurOuter1"></feColorMatrix>
        </filter>
        <path d="M203.009004,171.093958 C195.704009,182.629725 166.51334,179.745783 130.308639,163.956824 C127.689258,162.820672 124.778913,161.480581 121.170113,159.761951 C118.259768,158.363719 115.291159,156.878009 112.089851,155.159201 C104.406497,151.168267 96.6650569,146.682155 89.0399669,141.846307 C81.3274813,136.952318 73.9642228,131.85439 67.1249828,126.698144 C64.3601194,124.629956 61.6826516,122.503449 59.0924017,120.435083 C56.3566702,118.191938 53.8538159,116.094591 51.4381797,113.967906 C21.636274,88.0122509 6.53157544,62.8138533 13.8365703,51.2489263 C20.7049423,40.3539559 41.2355813,38.4938492 74.529937,52.0106822 C71.6487235,53.4963921 68.2663092,55.9880194 65.6471051,57.9105882 C51.5026927,56.2500988 47.5965029,62.2895163 42.9400216,69.6889076 C38.1378812,77.2629 39.9422809,88.3618088 48.0331256,100.85895 C51.0889525,105.607319 55.018025,110.530467 59.790856,115.511935 C62.0027468,117.84238 64.3309874,120.114685 66.7466233,122.270351 C73.731523,128.65005 81.6184445,134.621872 90.1748665,140.040198 C98.7312885,145.458524 107.520588,150.032114 116.251623,153.644331 C119.103704,154.809643 122.072313,155.945795 125.331886,157.023629 C131.792944,159.179295 137.93373,160.635846 143.579806,161.364121 C146.490151,161.742838 149.225883,161.946777 151.787001,161.946777 C162.351568,161.946777 170.063876,158.742259 173.905553,152.653977 C178.591166,145.312904 182.647317,139.219414 175.109623,127.100991 C175.691727,123.896473 176.472729,121.659946 176.559947,118.426446 C203.044194,142.779931 209.906508,160.19881 203.009004,171.093958 Z" id="path-4"></path>
        <filter x="-1.0%" y="-0.7%" width="102.1%" height="102.9%" filterUnits="objectBoundingBox" id="filter-5">
            <feOffset dx="0" dy="1" in="SourceAlpha" result="shadowOffsetOuter1"></feOffset>
            <feGaussianBlur stdDeviation="0.5" in="shadowOffsetOuter1" result="shadowBlurOuter1"></feGaussianBlur>
            <feColorMatrix values="0 0 0 0 0   0 0 0 0 0   0 0 0 0 0  0 0 0 0.19 0" type="matrix" in="shadowBlurOuter1"></feColorMatrix>
        </filter>
    </defs>
    <g id="Logo-V3-Portrait-Gray-Copy-2" stroke="none" stroke-width="1" fill="none" fill-rule="evenodd">
        <g id="Logo" transform="translate(150.685093, 150.159784) rotate(-22.000000) translate(-150.685093, -150.159784) translate(22.685093, 22.159784)">
            <circle id="Oval-Copy-4" fill="url(#linearGradient-1)" cx="126.853575" cy="127.93271" r="68.1818182"></circle>
            <g id="noun_Planet_1863251-2" fill-rule="nonzero">
                <g id="noun_Planet_1863251" transform="translate(127.692248, 127.991249) rotate(10.000000) translate(-127.692248, -127.991249) translate(17.692248, 17.491249)">
                    <g id="Group" transform="translate(-0.000000, 6.545455)">
                        <g id="Path" transform="translate(109.768404, 103.013227) rotate(13.000000) translate(-109.768404, -103.013227) ">
                            <use fill="black" fill-opacity="1" filter="url(#filter-3)" xlink:href="#path-2"></use>
                            <use fill="#4BCFB1" xlink:href="#path-2"></use>
                        </g>
                    </g>
                    <g id="Path" transform="translate(108.766164, 110.293151) rotate(-76.000000) translate(-108.766164, -110.293151) ">
                        <use fill="black" fill-opacity="1" filter="url(#filter-5)" xlink:href="#path-4"></use>
                        <use fill="#44ACDB" xlink:href="#path-4"></use>
                    </g>
                </g>
            </g>
        </g>
    </g>
</svg>