<?xml version="1.0" encoding="UTF-8"?>
<svg width="256px" height="256px" viewBox="0 0 256 256" version="1.1" xmlns="http://www.w3.org/2000/svg" xmlns:xlink="http://www.w3.org/1999/xlink">
    <!-- Generator: Sketch 59.1 (86144) - https://sketch.com -->
    <title>webclip</title>
    <desc>Created with Sketch.</desc>
    <defs>
        <linearGradient x1="59.2951899%" y1="11.4123368%" x2="41.1804485%" y2="98.1399656%" id="linearGradient-1">
            <stop stop-color="#121212" offset="0%"></stop>
            <stop stop-color="#3B3B3B" offset="100%"></stop>
        </linearGradient>
        <path d="M156.680636,125.809178 C151.0704,134.668647 128.651966,132.45378 100.846756,120.327859 C98.8350708,119.455294 96.5999258,118.426104 93.8283678,117.106196 C91.5932227,116.032354 89.3133312,114.891329 86.8547261,113.571284 C80.9539105,110.506247 75.0084845,107.060913 69.1524154,103.346982 C63.2292264,99.588398 57.5742439,95.6731898 52.3217076,91.7131928 C50.1982925,90.1248243 48.1419973,88.4916668 46.1526853,86.9031617 C44.0516436,85.1804265 42.1294514,83.5696635 40.2742428,81.9363696 C17.3863792,62.0024266 5.78597075,42.6500573 11.3962068,33.7681934 C16.6711165,25.4008561 32.4386473,23.9722941 58.0087124,34.3532219 C55.7959405,35.4942471 53.1982463,37.4078168 51.1866975,38.8843496 C40.3237888,37.6090939 37.323835,42.2473665 33.7476574,47.930099 C30.0596135,53.7469251 31.4453925,62.2708871 37.6591613,71.8686913 C40.0060364,75.5154391 43.023564,79.2964169 46.6890982,83.1221839 C48.3878304,84.911966 50.1759191,86.6570958 52.0311275,88.3126476 C57.3955305,93.2122564 63.4526862,97.7986159 70.0240183,101.95989 C76.5953504,106.121164 83.345532,109.633682 90.0509672,112.407864 C92.2413658,113.302824 94.5212574,114.175389 97.0246089,115.003165 C101.986702,116.658716 106.702825,117.777347 111.039012,118.336663 C113.274157,118.627518 115.375199,118.784143 117.342137,118.784143 C125.455725,118.784143 131.378778,116.323073 134.329185,111.647272 C137.927736,106.009328 141.04286,101.329528 135.253911,92.022579 C135.700967,89.5615091 136.300777,87.8438565 136.36776,85.3605288 C156.707662,104.064005 161.977919,117.441704 156.680636,125.809178 Z" id="path-2"></path>
        <filter x="-1.3%" y="-1.0%" width="102.7%" height="103.8%" filterUnits="objectBoundingBox" id="filter-3">
            <feOffset dx="0" dy="1" in="SourceAlpha" result="shadowOffsetOuter1"></feOffset>
            <feGaussianBlur stdDeviation="0.5" in="shadowOffsetOuter1" result="shadowBlurOuter1"></feGaussianBlur>
            <feColorMatrix values="0 0 0 0 0   0 0 0 0 0   0 0 0 0 0  0 0 0 0.19 0" type="matrix" in="shadowBlurOuter1"></feColorMatrix>
        </filter>
        <path d="M155.910915,131.40016 C150.300679,140.259629 127.882245,138.044762 100.077035,125.918841 C98.06535,125.046276 95.8302049,124.017086 93.058647,122.697178 C90.8235019,121.623336 88.5436103,120.482311 86.0850053,119.162266 C80.1841897,116.097229 74.2387637,112.651895 68.3826946,108.937964 C62.4595056,105.17938 56.8045231,101.264172 51.5519868,97.3041748 C49.4285717,95.7158064 47.3722764,94.0826489 45.3829645,92.4941438 C43.2819227,90.7714086 41.3597306,89.1606456 39.504522,87.5273516 C16.6166584,67.5934087 5.01624994,48.2410393 10.626486,39.3591754 C15.9013957,30.9918381 31.6689264,29.5632762 57.2389916,39.9442039 C55.0262197,41.0852292 52.4285255,42.9987989 50.4169767,44.4753317 C39.554068,43.2000759 36.5541142,47.8383485 32.9779366,53.521081 C29.2898927,59.3379072 30.6756717,67.8618692 36.8894405,77.4596734 C39.2363155,81.1064211 42.2538432,84.887399 45.9193774,88.7131659 C47.6181095,90.5029481 49.4061983,92.2480779 51.2614067,93.9036297 C56.6258097,98.8032385 62.6829654,103.389598 69.2542975,107.550872 C75.8256296,111.712146 82.5758112,115.224664 89.2812464,117.998846 C91.471645,118.893806 93.7515366,119.766371 96.2548881,120.594147 C101.216981,122.249699 105.933104,123.368329 110.269291,123.927645 C112.504436,124.2185 114.605478,124.375125 116.572417,124.375125 C124.686004,124.375125 130.609057,121.914055 133.559465,117.238254 C137.158016,111.600311 140.273139,106.92051 134.48419,97.6135611 C134.931246,95.1524912 135.531056,93.4348386 135.598039,90.9515108 C155.937941,109.654987 161.208198,123.032686 155.910915,131.40016 Z" id="path-4"></path>
        <filter x="-1.3%" y="-1.0%" width="102.7%" height="103.8%" filterUnits="objectBoundingBox" id="filter-5">
            <feOffset dx="0" dy="1" in="SourceAlpha" result="shadowOffsetOuter1"></feOffset>
            <feGaussianBlur stdDeviation="0.5" in="shadowOffsetOuter1" result="shadowBlurOuter1"></feGaussianBlur>
            <feColorMatrix values="0 0 0 0 0   0 0 0 0 0   0 0 0 0 0  0 0 0 0.19 0" type="matrix" in="shadowBlurOuter1"></feColorMatrix>
        </filter>
    </defs>
    <g id="webclip" stroke="none" stroke-width="1" fill="none" fill-rule="evenodd">
        <g id="Logo" transform="translate(128.317491, 128.233680) rotate(-22.000000) translate(-128.317491, -128.233680) translate(29.817491, 29.733680)">
            <circle id="Oval-Copy-4" fill="url(#linearGradient-1)" cx="97.4235458" cy="98.2523213" r="52.3636364"></circle>
            <g id="noun_Planet_1863251-2" fill-rule="nonzero">
                <g id="noun_Planet_1863251" transform="translate(98.063726, 98.434686) rotate(10.000000) translate(-98.063726, -98.434686) translate(13.563726, 13.434686)">
                    <g id="Group" transform="translate(-0.000000, 5.026909)">
                        <g id="Path" transform="translate(84.302134, 79.114158) rotate(13.000000) translate(-84.302134, -79.114158) ">
                            <use fill="black" fill-opacity="1" filter="url(#filter-3)" xlink:href="#path-2"></use>
                            <use fill="#4BCFB1" xlink:href="#path-2"></use>
                        </g>
                    </g>
                    <g id="Path" transform="translate(83.532414, 84.705140) rotate(-76.000000) translate(-83.532414, -84.705140) ">
                        <use fill="black" fill-opacity="1" filter="url(#filter-5)" xlink:href="#path-4"></use>
                        <use fill="#44ACDB" xlink:href="#path-4"></use>
                    </g>
                </g>
            </g>
        </g>
    </g>
</svg>